<?xml version="1.0" standalone="no"?>
<svg viewBox="0 0 200 200" xmlns="http://www.w3.org/2000/svg">
  <path fill="#8A3FFC" d="M41,-72.3C53.2,-64,63,-53.1,70.8,-40.6C78.6,-28.1,84.3,-14,83.3,-0.6C82.3,12.9,74.6,25.7,67.4,39.2C60.2,52.7,53.4,66.8,42.3,74.5C31.1,82.2,15.6,83.6,1.2,81.5C-13.1,79.4,-26.3,73.9,-38.5,66.7C-50.7,59.6,-61.9,50.9,-71.2,39.5C-80.5,28.1,-87.8,14.1,-89.7,-1.1C-91.5,-16.2,-87.9,-32.4,-80.3,-46.8C-72.7,-61.1,-61.2,-73.6,-47.2,-80.8C-33.1,-88,-16.6,-90,-1.1,-88.1C14.4,-86.3,28.9,-80.6,41,-72.3Z" transform="translate(100 100)" />
</svg>
