<?xml version="1.0" standalone="no"?>
<svg viewBox="0 0 200 200" xmlns="http://www.w3.org/2000/svg">
  <path fill="#FA4D56" d="M38.4,-66.1C49.9,-59.8,59.5,-49.9,68.2,-38.2C76.9,-26.6,84.5,-13.3,84,-0.3C83.4,12.7,74.6,25.3,65.8,36.7C57,48.1,48.2,58.2,37.3,65.8C26.3,73.3,13.2,78.3,-0.9,79.8C-14.9,81.4,-29.8,79.4,-41.4,72.2C-53,65,-61.2,52.5,-70.3,39.6C-79.4,26.7,-89.5,13.4,-91.7,-1.3C-93.9,-15.9,-88.3,-31.9,-78.8,-44.1C-69.3,-56.3,-55.8,-64.8,-42,-69.8C-28.2,-74.8,-14.1,-76.2,-0.4,-75.6C13.4,-75,26.8,-72.4,38.4,-66.1Z" transform="translate(100 100)" />
</svg>
