<?xml version="1.0" standalone="no"?>
<svg viewBox="0 0 200 200" xmlns="http://www.w3.org/2000/svg">
  <path fill="#F2F4F8" d="M32,-56C39.9,-44.6,43.7,-33.2,52.4,-21.7C61.1,-10.3,74.6,1.2,76.2,13.1C77.8,25,67.5,37.2,57.2,50.1C46.9,63,36.7,76.5,24.7,76.7C12.7,76.8,-1.1,63.7,-17,58.7C-33,53.7,-51.1,56.8,-57.8,49.7C-64.6,42.6,-60,25.3,-56.4,11.7C-52.7,-1.9,-50,-11.8,-47.2,-23C-44.4,-34.3,-41.4,-47,-33.5,-58.4C-25.6,-69.8,-12.8,-80,-0.4,-79.4C12,-78.8,24,-67.5,32,-56Z" transform="translate(100 100)" />
</svg>
