<?xml version="1.0" standalone="no"?>
<svg viewBox="0 0 200 200" xmlns="http://www.w3.org/2000/svg">
  <path fill="#08BDBA" d="M35.6,-45.7C51.1,-37.8,71.9,-34,81.5,-22.2C91.1,-10.5,89.6,9.1,82.5,25.6C75.5,42.1,62.9,55.6,48.2,61.7C33.5,67.7,16.7,66.3,-0.5,66.9C-17.8,67.6,-35.5,70.5,-47.4,63.5C-59.4,56.6,-65.5,39.9,-69.2,23.6C-72.9,7.3,-74.3,-8.7,-67.9,-20.1C-61.5,-31.6,-47.4,-38.7,-34.8,-47.4C-22.1,-56.2,-11.1,-66.7,-0.5,-66.1C10.1,-65.4,20.2,-53.6,35.6,-45.7Z" transform="translate(100 100)" />
</svg>
