<?xml version="1.0" standalone="no"?>
<svg viewBox="0 0 200 200" xmlns="http://www.w3.org/2000/svg">
  <path fill="#FF0066" d="M44.6,-77.7C58.2,-69.4,70,-58.3,77.1,-44.9C84.1,-31.5,86.4,-15.8,86.5,0C86.5,15.8,84.3,31.6,77.4,45.2C70.5,58.8,58.8,70.2,45.1,78.2C31.4,86.2,15.7,90.8,-0.1,90.9C-15.9,91.1,-31.7,86.7,-45.1,78.6C-58.5,70.4,-69.3,58.3,-77.8,44.6C-86.4,30.9,-92.5,15.4,-93.3,-0.5C-94.1,-16.4,-89.6,-32.7,-80.9,-46.2C-72.2,-59.6,-59.4,-70.1,-45.2,-78.2C-31,-86.2,-15.5,-91.9,0,-91.8C15.5,-91.8,31,-86.1,44.6,-77.7Z" transform="translate(100 100)" />
</svg>
